<?xml version="1.0" encoding="UTF-8" standalone="no"?>
<!DOCTYPE svg PUBLIC "-//W3C//DTD SVG 1.1//EN" "http://www.w3.org/Graphics/SVG/1.1/DTD/svg11.dtd">
<svg version="1.1" xmlns="http://www.w3.org/2000/svg" xmlns:xlink="http://www.w3.org/1999/xlink" preserveAspectRatio="xMidYMid meet" viewBox="0 0 126 126" width="126" height="126"><defs><path d="M0 0L126 0L126 126L0 126L0 0Z" id="b2rUXNVM9c"></path><path d="M63 0C28.21 0 0 28.2 0 63C0 97.79 28.21 126 63 126C97.79 126 126 97.79 126 63C126 28.2 97.79 0 63 0Z" id="e4NRfT7PMo"></path><path d="M69.98 77.04C66.72 80.31 60.98 80.38 57.64 77.04C57.1 76.5 54.42 73.81 49.59 68.96C32.24 86.36 22.6 96.03 20.67 97.97C21.75 98.47 22.94 98.76 24.2 98.76C32.12 98.76 95.5 98.76 103.43 98.76C104.69 98.76 105.87 98.47 106.95 97.97C105.02 96.03 95.38 86.36 78.04 68.96C73.2 73.81 70.52 76.5 69.98 77.04Z" id="aBBRl6izL"></path><path d="M24.2 31.17C22.94 31.17 21.75 31.47 20.67 31.97C23.76 35.07 48.48 59.87 51.57 62.97C51.57 62.97 51.58 62.97 51.58 62.97C51.58 62.98 51.58 62.98 51.58 62.98C52.59 63.99 60.62 72.05 61.63 73.06C62.7 74.13 64.93 74.13 66 73.06C67 72.05 75.04 63.99 76.04 62.98C76.04 62.98 76.04 62.98 76.05 62.97C76.05 62.97 76.05 62.97 76.05 62.97C79.14 59.87 103.86 35.07 106.95 31.97C105.87 31.47 104.69 31.17 103.43 31.17C87.58 31.17 32.12 31.17 24.2 31.17Z" id="e1hfioJ42i"></path><path d="M15.75 39.62C15.75 44.69 15.75 85.25 15.75 90.31C15.75 91.65 16.09 92.9 16.65 94.03C18.58 92.09 28.23 82.41 45.61 64.97L16.65 35.91C16.05 37.49 15.75 38.73 15.75 39.62Z" id="a2gy9ftQkx"></path><path d="M82.01 64.97C99.39 82.41 109.05 92.09 110.98 94.03C111.53 92.9 111.87 91.65 111.87 90.31C111.87 85.25 111.87 44.69 111.87 39.62C111.87 38.28 111.53 37.03 110.98 35.91C107.11 39.78 97.46 49.47 82.01 64.97Z" id="bG8l8XoWD"></path></defs><g><g><g><use xlink:href="#b2rUXNVM9c" opacity="1" fill="#009bdf" fill-opacity="1"></use></g><g><use xlink:href="#e4NRfT7PMo" opacity="1" fill="#009bdf" fill-opacity="1"></use><g><use xlink:href="#e4NRfT7PMo" opacity="1" fill-opacity="0" stroke="#000000" stroke-width="1" stroke-opacity="0"></use></g></g><g><use xlink:href="#aBBRl6izL" opacity="1" fill="#ffffff" fill-opacity="1"></use><g><use xlink:href="#aBBRl6izL" opacity="1" fill-opacity="0" stroke="#000000" stroke-width="1" stroke-opacity="0"></use></g></g><g><use xlink:href="#e1hfioJ42i" opacity="1" fill="#ffffff" fill-opacity="1"></use><g><use xlink:href="#e1hfioJ42i" opacity="1" fill-opacity="0" stroke="#000000" stroke-width="1" stroke-opacity="0"></use></g></g><g><use xlink:href="#a2gy9ftQkx" opacity="1" fill="#ffffff" fill-opacity="1"></use><g><use xlink:href="#a2gy9ftQkx" opacity="1" fill-opacity="0" stroke="#000000" stroke-width="1" stroke-opacity="0"></use></g></g><g><use xlink:href="#bG8l8XoWD" opacity="1" fill="#ffffff" fill-opacity="1"></use><g><use xlink:href="#bG8l8XoWD" opacity="1" fill-opacity="0" stroke="#000000" stroke-width="1" stroke-opacity="0"></use></g></g></g></g></svg>