<?xml version="1.0" encoding="UTF-8" standalone="no"?>
<!DOCTYPE svg PUBLIC "-//W3C//DTD SVG 1.1//EN" "http://www.w3.org/Graphics/SVG/1.1/DTD/svg11.dtd">
<svg version="1.1" xmlns="http://www.w3.org/2000/svg" xmlns:xlink="http://www.w3.org/1999/xlink" preserveAspectRatio="xMidYMid meet" viewBox="0 0 126 126" width="126" height="126"><defs><path d="M0 0L126 0L126 126L0 126L0 0Z" id="b1XVElae1u"></path><path d="M63 0C28.21 0 0 28.21 0 63C0 97.79 28.21 126 63 126C97.79 126 126 97.79 126 63C126 28.21 97.79 0 63 0Z" id="a2g62idq7"></path><path d="M63 0C28.21 0 0 28.2 0 63C0 97.79 28.21 126 63 126C97.79 126 126 97.79 126 63C126 28.2 97.79 0 63 0Z" id="j1PEvKjQIu"></path><path d="M12.83 64.27C12.83 86.97 27.49 106.23 47.84 113.03C50.4 113.51 51.33 111.92 51.33 110.56C51.33 109.33 51.29 106.1 51.26 101.82C37.03 104.92 34.02 94.93 34.02 94.93C31.7 88.99 28.34 87.41 28.34 87.41C23.69 84.22 28.68 84.28 28.68 84.28C33.82 84.65 36.52 89.58 36.52 89.58C41.09 97.43 48.51 95.17 51.42 93.85C51.88 90.53 53.21 88.26 54.67 86.98C43.31 85.68 31.36 81.27 31.36 61.58C31.36 55.97 33.36 51.38 36.63 47.79C36.1 46.49 34.35 41.26 37.13 34.19C37.13 34.19 41.43 32.81 51.21 39.46C55.29 38.32 59.67 37.75 64.02 37.73C68.37 37.76 72.75 38.32 76.84 39.46C86.61 32.82 90.9 34.2 90.9 34.2C93.69 41.27 91.94 46.5 91.41 47.79C94.7 51.39 96.67 55.98 96.67 61.59C96.67 81.33 84.71 85.67 73.31 86.95C75.14 88.53 76.78 91.67 76.78 96.46C76.78 103.33 76.72 108.87 76.72 110.56C76.72 111.93 77.64 113.53 80.24 113.03C100.55 106.22 115.2 86.97 115.2 64.27C115.2 35.89 92.28 12.88 64.01 12.88C35.75 12.88 12.83 35.89 12.83 64.27Z" id="c1Np7VvVqs"></path></defs><g><g><g><use xlink:href="#b1XVElae1u" opacity="1" fill="#009bdf" fill-opacity="1"></use></g><g><use xlink:href="#a2g62idq7" opacity="1" fill="#009bdf" fill-opacity="1"></use><g><use xlink:href="#a2g62idq7" opacity="1" fill-opacity="0" stroke="#000000" stroke-width="1" stroke-opacity="0"></use></g></g><g><use xlink:href="#j1PEvKjQIu" opacity="1" fill="#009bdf" fill-opacity="1"></use><g><use xlink:href="#j1PEvKjQIu" opacity="1" fill-opacity="0" stroke="#000000" stroke-width="1" stroke-opacity="0"></use></g></g><g><use xlink:href="#c1Np7VvVqs" opacity="1" fill="#ffffff" fill-opacity="1"></use><g><use xlink:href="#c1Np7VvVqs" opacity="1" fill-opacity="0" stroke="#000000" stroke-width="1" stroke-opacity="0"></use></g></g></g></g></svg>