<?xml version="1.0" encoding="UTF-8" standalone="no"?>
<!DOCTYPE svg PUBLIC "-//W3C//DTD SVG 1.1//EN" "http://www.w3.org/Graphics/SVG/1.1/DTD/svg11.dtd">
<svg version="1.1" xmlns="http://www.w3.org/2000/svg" xmlns:xlink="http://www.w3.org/1999/xlink" preserveAspectRatio="xMidYMid meet" viewBox="0 0 126 126" width="126" height="126"><defs><path d="M0 0L126 0L126 126L0 126L0 0Z" id="b1XVElae1u"></path><path d="M63 0C28.21 0 0 28.21 0 63C0 97.79 28.21 126 63 126C97.79 126 126 97.79 126 63C126 28.21 97.79 0 63 0Z" id="a2g62idq7"></path><path d="M63 0C28.21 0 0 28.2 0 63C0 97.79 28.21 126 63 126C97.79 126 126 97.79 126 63C126 28.2 97.79 0 63 0Z" id="j1PEvKjQIu"></path><path d="M100.64 94.04L85.58 94.04C85.58 79.5 85.58 71.42 85.58 69.81C85.58 63.72 83.41 59.57 77.96 59.57C73.8 59.57 71.32 62.37 70.23 65.08C69.84 66.04 69.73 67.39 69.73 68.75C69.73 70.43 69.73 78.86 69.73 94.04C60.7 94.04 55.68 94.04 54.67 94.04C54.67 94.04 54.88 53 54.67 48.75C55.68 48.75 60.7 48.75 69.73 48.75C69.73 52.6 69.73 54.74 69.73 55.17C69.7 55.22 69.66 55.27 69.63 55.32C69.64 55.32 69.67 55.32 69.73 55.32C69.73 55.23 69.73 55.18 69.73 55.17C71.74 52.09 75.31 47.69 83.31 47.69C93.21 47.69 100.64 54.16 100.64 68.07C100.64 68.07 100.64 68.07 100.64 68.07L100.64 94.04ZM30.4 34.74C30.4 39.09 33.67 42.57 38.72 42.57C38.73 42.57 38.81 42.57 38.82 42.57C44.07 42.57 47.34 39.09 47.34 34.74C47.24 30.3 44.07 26.92 38.92 26.92C38.92 26.92 38.92 26.92 38.92 26.92C33.24 29.17 30.4 31.78 30.4 34.74ZM46.35 94.04L46.35 48.75L31.29 48.75L31.29 94.04L46.35 94.04Z" id="b2k6cLQdtg"></path></defs><g><g><g><use xlink:href="#b1XVElae1u" opacity="1" fill="#009bdf" fill-opacity="1"></use></g><g><use xlink:href="#a2g62idq7" opacity="1" fill="#009bdf" fill-opacity="1"></use><g><use xlink:href="#a2g62idq7" opacity="1" fill-opacity="0" stroke="#000000" stroke-width="1" stroke-opacity="0"></use></g></g><g><use xlink:href="#j1PEvKjQIu" opacity="1" fill="#009bdf" fill-opacity="1"></use><g><use xlink:href="#j1PEvKjQIu" opacity="1" fill-opacity="0" stroke="#000000" stroke-width="1" stroke-opacity="0"></use></g></g><g><use xlink:href="#b2k6cLQdtg" opacity="1" fill="#f1f2f2" fill-opacity="1"></use><g><use xlink:href="#b2k6cLQdtg" opacity="1" fill-opacity="0" stroke="#000000" stroke-width="1" stroke-opacity="0"></use></g></g></g></g></svg>