<svg width="126" height="126" xmlns="http://www.w3.org/2000/svg">
 <g>
  <title>Layer 1</title>
  <rect fill="#009bdf" stroke-width="0" y="0" width="126" height="126" id="svg_4" rx="30" x="0" stroke="#000"/>
  <g fill="#61dafb" id="svg_1" stroke="null"/>
  <g stroke="null">
   <g stroke="null" fill="#8CC84B">
    <path stroke="null" fill="#ffffff" d="m59.53517,23.47323c2.09831,-1.14645 4.83137,-1.15163 6.92787,0c10.54733,5.68879 21.09798,11.36867 31.6435,17.06091c1.98348,1.06647 3.31023,3.17351 3.29003,5.35507l0,34.22596c0.01477,2.27189 -1.44308,4.42928 -3.53567,5.47159c-10.51267,5.65743 -21.01991,11.32177 -31.53078,16.97921c-2.14172,1.16889 -4.92962,1.07884 -7.00443,-0.18585c-3.15169,-1.74398 -6.30881,-3.47933 -9.4608,-5.22158c-0.64408,-0.36652 -1.37014,-0.65824 -1.82495,-1.25433c0.40206,-0.51727 1.12089,-0.58171 1.70499,-0.80755c1.31559,-0.39931 2.52388,-1.04029 3.73248,-1.66228c0.30561,-0.19966 0.67874,-0.12313 0.9717,0.05552c2.69508,1.47499 5.36634,2.99284 8.07046,4.45374c0.57687,0.3179 1.16097,-0.10414 1.65406,-0.36652c10.31616,-5.56537 20.64498,-11.10974 30.95933,-16.67684c0.38217,-0.17549 0.59345,-0.56272 0.5624,-0.96232c0.00723,-11.29041 0.00181,-22.58284 0.00362,-33.87325c0.0437,-0.4534 -0.23117,-0.87026 -0.66066,-1.05582c-10.4762,-5.63154 -20.94698,-11.27171 -31.42137,-16.90469a1.09135,1.04173 0 0 0 -1.23391,-0.00173c-10.47439,5.63471 -20.94336,11.28006 -31.41775,16.91131c-0.42798,0.18585 -0.71521,0.59581 -0.66428,1.05093c0.00181,11.29041 0,22.58284 0,33.87498a1.00335,0.95772 0 0 0 0.56964,0.95024c2.79514,1.51296 5.5939,3.01528 8.39085,4.52307c1.57569,0.80956 3.51035,1.29058 5.24639,0.67032c1.53199,-0.52446 2.60586,-2.01671 2.57663,-3.56938c0.01447,-11.22453 -0.00723,-22.45079 0.01085,-33.6736c-0.03828,-0.49828 0.45692,-0.90997 0.96447,-0.86307c1.34302,-0.00863 2.68784,-0.01726 4.03086,0.00345c0.5606,-0.01208 0.94638,0.52446 0.87706,1.02648c-0.00543,11.29559 0.01447,22.59147 -0.00904,33.88706c0.00362,3.01039 -1.29208,6.28604 -4.20929,7.75901c-3.59384,1.77706 -8.0358,1.40019 -11.58624,-0.3038c-3.07363,-1.46434 -6.00681,-3.1925 -9.02589,-4.76128c-2.09801,-1.03655 -3.54863,-3.20257 -3.53386,-5.47274l0,-34.22625c-0.022,-2.22672 1.35748,-4.37203 3.40275,-5.42297c10.51086,-5.66204 21.01991,-11.32839 31.52897,-16.99301z"/>
    <path stroke="null" fill="#ffffff" d="m68.70482,47.1818c4.58422,-0.28165 9.49184,-0.16686 13.61704,1.9888c3.19389,1.65192 4.96458,5.11888 5.02095,8.50586c-0.08921,0.45685 -0.58953,0.70887 -1.04644,0.67751c-1.33006,-0.00173 -2.66042,0.01726 -3.99047,-0.00863c-0.56421,0.02071 -0.89213,-0.47584 -0.96296,-0.95197c-0.38217,-1.62056 -1.30806,-3.22559 -2.90605,-4.00724c-2.45306,-1.17234 -5.29732,-1.11336 -7.97221,-1.08891c-1.95274,0.09897 -4.05256,0.26036 -5.70692,1.35646c-1.27008,0.83027 -1.65587,2.50636 -1.20257,3.8562c0.42738,0.96923 1.59951,1.28195 2.55855,1.57021c5.52458,1.37919 11.37888,1.24196 16.79797,3.057c2.24359,0.73994 4.43835,2.17839 5.2063,4.42065c1.00455,3.00521 0.56421,6.59732 -1.67576,9.00989c-1.81651,1.98535 -4.46216,3.06592 -7.10087,3.65281c-3.51035,0.74713 -7.15332,0.76612 -10.71822,0.43441c-3.35212,-0.36479 -6.84047,-1.20542 -9.42825,-3.38554c-2.21284,-1.83403 -3.29365,-4.69166 -3.18635,-7.44975c0.02562,-0.46577 0.51147,-0.79057 0.97893,-0.75231c1.3394,-0.01036 2.6788,-0.01381 4.0182,0.00173c0.53498,-0.03654 0.93161,0.40478 0.95904,0.88609c0.24714,1.54403 0.85506,3.1646 2.26559,4.08003c2.7222,1.67637 6.13792,1.56158 9.25495,1.60848c2.58236,-0.10932 5.48118,-0.14241 7.58853,-1.7716c1.11185,-0.92924 1.44127,-2.48392 1.14078,-3.82139c-0.32551,-1.12919 -1.56304,-1.65537 -2.62576,-1.99945c-5.45375,-1.64674 -11.37346,-1.04921 -16.77446,-2.91143c-2.19265,-0.73965 -4.31297,-2.13812 -5.15537,-4.28831c-1.17544,-3.04319 -0.63685,-6.80733 1.83791,-9.13849c2.41297,-2.31879 5.8962,-3.21178 9.20793,-3.5314l0,0.00029z"/>
   </g>
  </g>
 </g>

</svg>