<svg width="126" height="126" xmlns="http://www.w3.org/2000/svg">
 <g>
  <title>Layer 1</title>
  <rect fill="#009bdf" stroke-width="0" y="0" width="126" height="126" id="svg_4" rx="30" x="0" stroke="#000"/>
  <g stroke="null" fill="#61dafb" id="svg_1">
   <path stroke="null" d="m106.48748,63.00887c0,-5.76169 -7.21542,-11.22201 -18.27786,-14.6081c2.55288,-11.27519 1.41826,-20.2457 -3.58112,-23.11768c-1.15234,-0.67368 -2.49968,-0.99279 -3.97114,-0.99279l0,3.95341c0.8155,0 1.47145,0.15956 2.02103,0.46094c2.41105,1.38281 3.45702,6.6481 2.64151,13.42031c-0.19501,1.66646 -0.51412,3.42156 -0.90414,5.21211c-3.47474,-0.85096 -7.2686,-1.50691 -11.25746,-1.93238c-2.39332,-3.27973 -4.87528,-6.25808 -7.37497,-8.86414c5.77942,-5.37167 11.20428,-8.31457 14.89176,-8.31457l0,-3.95341c-4.87528,0 -11.25746,3.47474 -17.71055,9.50236c-6.45309,-5.99216 -12.83528,-9.43144 -17.71055,-9.43144l0,3.95341c3.66975,0 9.11234,2.92517 14.89176,8.26138c-2.48196,2.60606 -4.96392,5.56668 -7.32178,8.84641c-4.00659,0.42548 -7.80044,1.08142 -11.27519,1.95011c-0.40775,-1.77283 -0.70913,-3.49247 -0.92187,-5.14121c-0.83323,-6.7722 0.19501,-12.0375 2.58833,-13.43804c0.53185,-0.31911 1.22325,-0.46094 2.03876,-0.46094l0,-3.95341c-1.48918,0 -2.83652,0.31911 -4.00659,0.99279c-4.98165,2.87199 -6.09853,11.82476 -3.52792,23.0645c-11.027,3.40383 -18.20695,8.84641 -18.20695,14.59038c0,5.76169 7.21542,11.22201 18.27786,14.6081c-2.55288,11.27519 -1.41826,20.2457 3.58112,23.11768c1.15234,0.67368 2.49968,0.99279 3.98886,0.99279c4.87528,0 11.25746,-3.47474 17.71055,-9.50236c6.45309,5.99216 12.83528,9.43144 17.71055,9.43144c1.48918,0 2.83652,-0.31911 4.00659,-0.99279c4.98165,-2.87199 6.09853,-11.82476 3.52792,-23.0645c10.99153,-3.3861 18.17149,-8.84641 18.17149,-14.59038l0.00001,0.00001zm-23.08222,-11.82476c-0.65595,2.28695 -1.47145,4.64481 -2.39332,7.00267c-0.72686,-1.41826 -1.48918,-2.83652 -2.3224,-4.25479c-0.8155,-1.41826 -1.68419,-2.80107 -2.55288,-4.14842c2.51742,0.37229 4.94619,0.83323 7.2686,1.40053zm-8.11956,18.88062c-1.38281,2.39332 -2.80107,4.66254 -4.27252,6.7722c-2.64151,0.23046 -5.31849,0.35457 -8.01318,0.35457c-2.67697,0 -5.35394,-0.1241 -7.97773,-0.33684c-1.47145,-2.10966 -2.90744,-4.36116 -4.29025,-6.73675c-1.34735,-2.3224 -2.5706,-4.68027 -3.68748,-7.05586c1.09915,-2.37559 2.34013,-4.75118 3.66975,-7.07359c1.38281,-2.39332 2.80107,-4.66254 4.27252,-6.7722c2.64151,-0.23046 5.31849,-0.35457 8.01318,-0.35457c2.67697,0 5.35394,0.1241 7.97773,0.33684c1.47145,2.10966 2.90744,4.36116 4.29025,6.73675c1.34735,2.3224 2.5706,4.68027 3.68748,7.05586c-1.11688,2.37559 -2.34013,4.75118 -3.66975,7.07359zm5.72624,-2.30467c0.95733,2.37559 1.77283,4.75118 2.4465,7.05586c-2.3224,0.5673 -4.76891,1.04597 -7.30405,1.41826c0.86869,-1.36508 1.73737,-2.76561 2.55288,-4.2016c0.8155,-1.41826 1.57782,-2.85425 2.30467,-4.27252zm-17.97648,18.91608c-1.64873,-1.70192 -3.29746,-3.59884 -4.92846,-5.67305c1.59554,0.07091 3.22655,0.1241 4.87528,0.1241c1.66646,0 3.31519,-0.03545 4.92846,-0.1241c-1.59554,2.07421 -3.24428,3.97114 -4.87528,5.67305zm-13.18984,-10.44196c-2.51742,-0.37229 -4.94619,-0.83323 -7.2686,-1.40053c0.65595,-2.28695 1.47145,-4.64481 2.39332,-7.00267c0.72686,1.41826 1.48918,2.83652 2.3224,4.25479s1.68419,2.80107 2.55288,4.14842zm13.10121,-36.89256c1.64873,1.70192 3.29746,3.59884 4.92846,5.67305c-1.59554,-0.07091 -3.22655,-0.1241 -4.87528,-0.1241c-1.66646,0 -3.31519,0.03545 -4.92846,0.1241c1.59554,-2.07421 3.24428,-3.97114 4.87528,-5.67305zm-13.11893,10.44196c-0.86869,1.36508 -1.73737,2.76561 -2.55288,4.2016c-0.8155,1.41826 -1.57782,2.83652 -2.30467,4.25479c-0.95733,-2.37559 -1.77283,-4.75118 -2.4465,-7.05586c2.3224,-0.54958 4.76891,-1.02824 7.30405,-1.40053zm-16.0441,22.19581c-6.27581,-2.67697 -10.33559,-6.18717 -10.33559,-8.97051s4.05977,-6.31127 10.33559,-8.97051c1.52463,-0.65595 3.19109,-1.24098 4.91073,-1.79055c1.01051,3.47474 2.34013,7.09131 3.98886,10.79652c-1.631,3.68748 -2.9429,7.28632 -3.93568,10.74334c-1.7551,-0.54958 -3.42156,-1.15234 -4.96392,-1.80828l0,-0.00001zm9.53782,25.33372c-2.41105,-1.38281 -3.45702,-6.6481 -2.64151,-13.42031c0.19501,-1.66646 0.51412,-3.42156 0.90414,-5.21211c3.47474,0.85096 7.2686,1.50691 11.25746,1.93238c2.39332,3.27973 4.87528,6.25808 7.37497,8.86414c-5.77942,5.37167 -11.20428,8.31457 -14.89176,8.31457c-0.79778,-0.01773 -1.47145,-0.17728 -2.0033,-0.47867zm42.05149,-13.50895c0.83323,6.7722 -0.19501,12.0375 -2.58833,13.43804c-0.53185,0.31911 -1.22325,0.46094 -2.03876,0.46094c-3.66975,0 -9.11234,-2.92517 -14.89176,-8.26138c2.48196,-2.60606 4.96392,-5.56668 7.32178,-8.84641c4.00659,-0.42548 7.80044,-1.08142 11.27519,-1.95011c0.40775,1.79055 0.72686,3.5102 0.92187,5.15893zm6.82539,-11.82476c-1.52463,0.65595 -3.19109,1.24098 -4.91073,1.79055c-1.01051,-3.47474 -2.34013,-7.09131 -3.98886,-10.79652c1.631,-3.68748 2.9429,-7.28632 3.93568,-10.74334c1.7551,0.54958 3.42156,1.15234 4.98165,1.80828c6.27581,2.67697 10.33559,6.18717 10.33559,8.97051c-0.01773,2.78334 -4.07751,6.31127 -10.35332,8.97051l0,0.00001z" id="svg_2" fill="#ffffff"/>
   <circle stroke="null" cx="62.98227" cy="63.00887" r="8.10183" id="svg_3" fill="#ffffff"/>
  </g>
 </g>

</svg>