<svg width="126" height="126" xmlns="http://www.w3.org/2000/svg">
 <g>
  <title>Layer 1</title>
  <rect y="0" x="0" stroke="#000" rx="30" id="svg_4" height="126" width="126" stroke-width="0" fill="#009bdf"/>
  <path stroke="null" fill="#ffffff" d="m25.13122,35.32074l75.6997,0c4.79095,0 8.66897,3.87802 8.66897,8.66897l0,28.89571c0,4.79095 -3.87802,8.66897 -8.66897,8.66897l-27.14687,0l3.72617,9.12488l-16.38723,-9.12488l-35.85398,0c-4.79058,0 -8.6686,-3.87802 -8.6686,-8.66897l0,-28.89571c-0.03814,-4.7528 3.83951,-8.66897 8.63082,-8.66897z"/>
  <path stroke="null" fill="#009bdf" d="m24.4713,48.34321c0.4307,-0.58472 1.07661,-0.89215 1.93802,-0.95364c1.5691,-0.12327 2.46125,0.61487 2.67645,2.21471c0.95364,6.42951 1.9995,11.87465 3.10686,16.3351l6.73695,-12.82799c0.61546,-1.16914 1.38464,-1.7843 2.30753,-1.84579c1.3536,-0.09223 2.18397,0.76888 2.52244,2.58393c0.76918,4.09124 1.75356,7.56761 2.9224,10.52075c0.79992,-7.81356 2.15352,-13.44315 4.06079,-16.91923c0.46115,-0.86141 1.1381,-1.29211 2.03025,-1.35389c0.70769,-0.06119 1.3536,0.15401 1.93802,0.61546c0.58442,0.46145 0.89215,1.04587 0.95364,1.75356c0.03074,0.55368 -0.06149,1.01512 -0.30743,1.47657c-1.19988,2.215 -2.18456,5.93732 -2.98418,11.10517c-0.76888,5.01443 -1.04587,8.9215 -0.86141,11.72093c0.06178,0.76859 -0.06149,1.44553 -0.36892,2.03025c-0.36951,0.67665 -0.92289,1.04587 -1.63058,1.10735c-0.79992,0.06149 -1.63029,-0.30743 -2.43021,-1.1381c-2.86091,-2.92269 -5.1374,-7.29092 -6.79843,-13.10497c-1.9998,3.93752 -3.47637,6.89066 -4.43001,8.85943c-1.81504,3.47637 -3.3531,5.26067 -4.64521,5.3529c-0.83066,0.06149 -1.53806,-0.6462 -2.15322,-2.12248c-1.5688,-4.03005 -3.26087,-11.81316 -5.07562,-23.34904c-0.12327,-0.79992 0.06119,-1.50761 0.49189,-2.06099zm66.10899,4.82967c-1.10735,-1.93802 -2.73794,-3.10686 -4.9219,-3.5686c-0.58472,-0.12297 -1.1381,-0.18446 -1.66133,-0.18446c-2.95314,0 -5.35261,1.53806 -7.22914,4.61447c-1.59984,2.61467 -2.39946,5.50632 -2.39946,8.67496c0,2.36872 0.49219,4.39897 1.47657,6.09104c1.10735,1.93802 2.73794,3.10686 4.9219,3.56831c0.58442,0.12327 1.1381,0.18476 1.66133,0.18476c2.98389,0 5.38335,-1.53806 7.22914,-4.61447c1.59954,-2.64571 2.39946,-5.53736 2.39946,-8.70571c0.03074,-2.39946 -0.49219,-4.39926 -1.47657,-6.0603zm-3.87604,8.52125c-0.4307,2.03025 -1.19988,3.53756 -2.33827,4.55269c-0.89185,0.79992 -1.72252,1.1381 -2.4914,0.98438c-0.73843,-0.15372 -1.35389,-0.79962 -1.81504,-1.9995c-0.36951,-0.95364 -0.55368,-1.90727 -0.55368,-2.79942c0,-0.76888 0.06149,-1.53806 0.2152,-2.24545c0.27699,-1.26137 0.79992,-2.49199 1.63029,-3.66083c1.01542,-1.50761 2.09203,-2.12248 3.19938,-1.90727c0.73843,0.15372 1.35389,0.79992 1.81504,1.9995c0.36922,0.95364 0.55368,1.90727 0.55368,2.79942c0,0.79992 -0.06149,1.5688 -0.2152,2.2762l0,0.0003zm-15.38146,-8.52125c-1.10735,-1.93802 -2.76868,-3.10686 -4.9219,-3.5686c-0.58442,-0.12297 -1.1381,-0.18446 -1.66133,-0.18446c-2.95314,0 -5.35261,1.53806 -7.22914,4.61447c-1.59954,2.61467 -2.39946,5.50632 -2.39946,8.67496c0,2.36872 0.49219,4.39897 1.47657,6.09104c1.10735,1.93802 2.73794,3.10686 4.9219,3.56831c0.58472,0.12327 1.1381,0.18476 1.66133,0.18476c2.98389,0 5.38335,-1.53806 7.22914,-4.61447c1.59984,-2.64571 2.39946,-5.53736 2.39946,-8.70571c0,-2.39946 -0.49219,-4.39926 -1.47657,-6.0603zm-3.90678,8.52125c-0.4307,2.03025 -1.19988,3.53756 -2.33798,4.55269c-0.89215,0.79992 -1.72281,1.1381 -2.49199,0.98438c-0.73814,-0.15372 -1.3533,-0.79962 -1.81504,-1.9995c-0.36892,-0.95364 -0.55338,-1.90727 -0.55338,-2.79942c0,-0.76888 0.06149,-1.53806 0.2152,-2.24545c0.27699,-1.26137 0.79992,-2.49199 1.63058,-3.66083c1.01512,-1.50761 2.09173,-2.12248 3.19909,-1.90727c0.73843,0.15372 1.35389,0.79992 1.81504,1.9995c0.36951,0.95364 0.55368,1.90727 0.55368,2.79942c0.03104,0.79992 -0.06149,1.5688 -0.2152,2.2762l0,0.0003z"/>
 </g>

</svg>