<svg width="126" height="126" xmlns="http://www.w3.org/2000/svg">
 <g>
  <title>Layer 1</title>
  <rect stroke="#000" rx="30" id="svg_4" height="126" width="126" stroke-width="0" fill="#009bdf"/>
  <g stroke="null">
   <path stroke="null" d="m63.00055,101.09982c-21.11415,0 -38.25906,-16.82792 -38.09982,-38.09982c0.15925,-21.2719 16.19242,-38.09982 38.09982,-38.09982c21.90888,0 38.09982,17.14492 38.09982,38.09982s-16.98567,38.09982 -38.09982,38.09982zm11.2707,-5.87422l-10.79445,-29.05111l-10.16045,29.6866c7.46221,1.74723 12.54169,2.22199 20.9549,-0.63549zm-26.35138,-1.5865l-16.19242,-44.29104c-2.22348,4.76248 -2.69824,8.7317 -3.01673,13.65194c0.15925,13.01645 7.46072,24.92264 19.20915,30.6391zm49.21276,-30.6391c0.15776,-8.41321 -3.65074,-15.08068 -3.96923,-16.03318c0.31849,6.50971 -0.63549,9.84196 -1.74575,13.49418l-11.11294,31.9086c13.97043,-8.4147 16.66718,-20.95639 16.98567,-29.3696l-0.15776,0zm-35.24233,-1.42874l-5.39797,-14.76368l-3.96923,-0.317c-1.5865,-1.11174 -0.63549,-2.85749 0.47625,-2.85749c7.14372,0.47625 11.11145,0.47625 18.25666,0c1.74723,0 2.22199,2.54048 0.15776,2.85749l-3.80998,0.317l12.38095,36.51183l5.87273,-20.0024c0.31849,-8.73022 -2.06424,-9.68271 -5.23873,-16.03318c-2.54048,-4.92172 0.15925,-9.6842 5.08097,-9.84196c-3.97072,-3.80998 -12.06544,-8.57246 -22.70213,-8.7317s-21.9074,5.23873 -28.57486,15.39917l11.74844,-0.317c1.42874,0.63549 0.79325,2.69824 0,2.85749l-4.12698,0.317l12.38244,37.14732l7.46369,-22.54289z" fill="#ffffff"/>
  </g>
 </g>

</svg>